<svg width="60" height="60" viewBox="0 0 60 60" xmlns="http://www.w3.org/2000/svg">
  <!-- Parakaleo interlocking circles logo based on user's image -->
  <g transform="translate(30, 30)">
    <!-- Orange outer ring segments -->
    <path d="M -15 -10 A 18 18 0 0 1 0 -18 A 18 18 0 0 1 15 -10" stroke="#FF8C00" stroke-width="3" fill="none"/>
    <path d="M 15 -10 A 18 18 0 0 1 18 0 A 18 18 0 0 1 15 10" stroke="#FF8C00" stroke-width="3" fill="none"/>
    <path d="M 15 10 A 18 18 0 0 1 0 18 A 18 18 0 0 1 -15 10" stroke="#FF8C00" stroke-width="3" fill="none"/>
    <path d="M -15 10 A 18 18 0 0 1 -18 0 A 18 18 0 0 1 -15 -10" stroke="#FF8C00" stroke-width="3" fill="none"/>
    
    <!-- Blue middle ring segments -->
    <path d="M -8 -12 A 14 14 0 0 1 8 -12 A 14 14 0 0 1 12 -8" stroke="#4A90E2" stroke-width="3" fill="none"/>
    <path d="M 12 -8 A 14 14 0 0 1 12 8 A 14 14 0 0 1 8 12" stroke="#4A90E2" stroke-width="3" fill="none"/>
    <path d="M 8 12 A 14 14 0 0 1 -8 12 A 14 14 0 0 1 -12 8" stroke="#4A90E2" stroke-width="3" fill="none"/>
    <path d="M -12 8 A 14 14 0 0 1 -12 -8 A 14 14 0 0 1 -8 -12" stroke="#4A90E2" stroke-width="3" fill="none"/>
    
    <!-- Green inner ring segments -->
    <path d="M -5 -8 A 10 10 0 0 1 5 -8 A 10 10 0 0 1 8 -5" stroke="#50C878" stroke-width="3" fill="none"/>
    <path d="M 8 -5 A 10 10 0 0 1 8 5 A 10 10 0 0 1 5 8" stroke="#50C878" stroke-width="3" fill="none"/>
    <path d="M 5 8 A 10 10 0 0 1 -5 8 A 10 10 0 0 1 -8 5" stroke="#50C878" stroke-width="3" fill="none"/>
    <path d="M -8 5 A 10 10 0 0 1 -8 -5 A 10 10 0 0 1 -5 -8" stroke="#50C878" stroke-width="3" fill="none"/>
  </g>
</svg>